<svg width="22" height="22" viewBox="0 0 22 22" fill="none" xmlns="http://www.w3.org/2000/svg">
<path d="M1.07442 22.0001C0.86193 22.0002 0.654202 21.9372 0.477511 21.8192C0.300819 21.7011 0.163103 21.5333 0.0817817 21.337C0.000460159 21.1407 -0.0208133 20.9247 0.0206523 20.7163C0.0621178 20.5079 0.164459 20.3165 0.314732 20.1662L20.1663 0.314673C20.3678 0.113191 20.641 0 20.926 0C21.2109 0 21.4842 0.113191 21.6857 0.314673C21.8871 0.516154 22.0003 0.789422 22.0003 1.07436C22.0003 1.3593 21.8871 1.63257 21.6857 1.83405L1.83411 21.6856C1.73444 21.7855 1.61601 21.8647 1.48564 21.9187C1.35527 21.9726 1.21552 22.0003 1.07442 22.0001Z" fill="#FBB731"/>
<path d="M20.9262 22.0001C20.7851 22.0003 20.6453 21.9726 20.5149 21.9187C20.3846 21.8647 20.2662 21.7855 20.1665 21.6856L0.314917 1.83405C0.113435 1.63257 0.000244141 1.3593 0.000244141 1.07436C0.000244141 0.789422 0.113435 0.516154 0.314917 0.314673C0.516399 0.113191 0.789666 0 1.0746 0C1.35954 0 1.63281 0.113191 1.83429 0.314673L21.6859 20.1662C21.8361 20.3165 21.9385 20.5079 21.9799 20.7163C22.0214 20.9247 22.0001 21.1407 21.9188 21.337C21.8375 21.5333 21.6998 21.7011 21.5231 21.8192C21.3464 21.9372 21.1387 22.0002 20.9262 22.0001V22.0001Z" fill="#FBB731"/>
</svg>
